<svg width="17" height="17" viewBox="0 0 17 17" fill="none" xmlns="http://www.w3.org/2000/svg"> <path d="M11.3333 2.125H5.66667C3.71066 2.125 2.125 3.71066 2.125 5.66667V11.3333C2.125 13.2893 3.71066 14.875 5.66667 14.875H11.3333C13.2893 14.875 14.875 13.2893 14.875 11.3333V5.66667C14.875 3.71066 13.2893 2.125 11.3333 2.125Z" stroke="white" stroke-width="1.275"/> <path d="M8.49935 11.3337C10.0642 11.3337 11.3327 10.0651 11.3327 8.50033C11.3327 6.93552 10.0642 5.66699 8.49935 5.66699C6.93454 5.66699 5.66602 6.93552 5.66602 8.50033C5.66602 10.0651 6.93454 11.3337 8.49935 11.3337Z" stroke="white" stroke-width="1.275"/> <path d="M12.3958 5.31217C12.787 5.31217 13.1042 4.99504 13.1042 4.60384C13.1042 4.21264 12.787 3.89551 12.3958 3.89551C12.0046 3.89551 11.6875 4.21264 11.6875 4.60384C11.6875 4.99504 12.0046 5.31217 12.3958 5.31217Z" fill="white" stroke="white" stroke-width="1.275"/> </svg>
